<svg width="350" height="303" viewBox="0 0 350 303" fill="none" xmlns="http://www.w3.org/2000/svg">
<g opacity="0.3">
<path d="M265.695 277.529C285.086 279.581 314.999 257.117 327.077 246.963C328.143 243.618 338.699 235.928 342.91 201.897C346.279 174.672 316.758 144.435 301.576 132.719C298.68 148.746 274.671 180.154 274.002 179.94C273.467 179.77 276.318 170.361 277.81 165.678C282.831 142.517 274.808 118.049 270.169 108.71C262.317 92.6487 243.773 77.4546 235.482 71.8653C227.32 99.3315 212.929 112.58 206.754 115.771C206.482 111.999 213.641 82.5923 216.596 71.006C218.96 61.7369 215.213 56.0724 213.044 54.3988C188.43 33.5858 139.029 26.8847 117.405 26.1358C98.72 23.7194 66.4508 29.5517 52.6519 32.7698C54.4753 36.2986 56.8287 57.4369 57.7775 67.565C66.3729 96.0965 75.3236 95.3123 80.6058 97.6838C86.3584 100.267 88.9378 100.83 90.2146 102.219C87.3844 106.476 81.606 106.109 81.173 123.657C80.74 141.206 93.0544 148.814 101.414 159.584C108.101 168.2 119.869 172.588 124.918 173.705C133.585 174.256 147.002 164.53 148.766 163.618C150.53 162.706 154.272 160.214 152.75 162.677C151.229 165.14 143.62 177.454 142.246 191.018C140.872 204.582 167.111 223.996 184.961 230.421C202.811 236.846 226.204 225.876 229.732 224.052C232.555 222.594 233.727 223.851 233.96 224.662C230.551 229.963 222.779 242.176 218.956 248.622C214.178 256.68 216.031 262.429 220.743 266.141C228.356 272.138 249.889 278.389 265.695 277.529Z" fill="#0A2A5C"/>
<path d="M96.3079 76.1574C94.7862 78.6203 90.6606 82.3169 86.3317 77.4003C80.9206 71.2546 95.9767 67.9457 96.3079 76.1574Z" fill="#A5D7A2"/>
<path d="M336.833 262.6C334.692 261.918 182.854 127.561 107.202 60.4685C104.114 55.3578 111.39 58.1183 115.414 60.1373C123.898 63.5775 330.819 244.471 337.81 252.594C344.802 260.718 339.509 263.453 336.833 262.6Z" fill="#A5D7A2"/>
<path d="M253.2 252.164C266.898 253.581 272.924 238.06 274.225 230.123C270.85 226.837 267.167 233.77 259.713 240.975C253.75 246.739 252.886 250.836 253.2 252.164Z" fill="#A5D7A2"/>
<path d="M313.877 172.749C314.512 167.056 311.446 168.044 309.834 169.25C304.997 172.867 300.549 189.136 300.153 192.694C299.756 196.253 300.881 197.348 304.439 197.745C307.997 198.142 313.084 179.865 313.877 172.749Z" fill="#A5D7A2"/>
<path d="M205.691 186.178C212.507 177.738 204.639 179.456 199.853 181.37C195.96 183.568 186.772 189.582 181.173 196.052C175.575 202.522 180.522 202.723 183.695 202.014C188.187 200.252 198.875 194.618 205.691 186.178Z" fill="#A5D7A2"/>
<path d="M132.51 126.75C140.249 120.962 134.337 119.472 130.414 119.45C129.745 119.237 125.14 120.275 112.072 126.133C99.004 131.992 107.578 133.299 113.499 133.22C116.611 133.475 124.77 132.538 132.51 126.75Z" fill="#A5D7A2"/>
<path d="M168.935 77.1909C167.812 86.2658 172.927 82.3932 175.625 79.3225C182.991 65.457 178.462 58.8553 176.698 59.767C174.933 60.6787 170.339 65.8471 168.935 77.1909Z" fill="#A5D7A2"/>
<path d="M251.187 117.401C251.969 109.396 247.945 112.929 245.835 115.695C239.293 124.665 238.374 139.111 242.146 138.839C245.917 138.566 250.21 127.406 251.187 117.401Z" fill="#A5D7A2"/>
</g>
</svg>
