<svg width="287" height="339" viewBox="0 0 287 339" fill="none" xmlns="http://www.w3.org/2000/svg">
<g opacity="0.3">
<path d="M236.283 47.5569C235.432 38.2723 229.907 40.0753 224.7 40.625C215.47 44.4243 206.061 44.7111 201.543 45.7017C197.928 46.4942 180.56 43.593 172.327 42.0434C153.347 33.7732 137.626 48.467 133.92 50.4633C130.955 52.0604 121.879 72.0456 117.712 81.8385C116.721 77.32 119.758 53.3706 121.401 41.9608C121.722 34.7868 114.189 34.2677 110.383 34.905C53.0196 48.6645 57.2586 89.4853 56.6582 92.2635C55.8525 95.9918 54.8819 106.663 54.9724 111.576L49.1289 71.4199C47.4015 61.3802 53.0869 54.372 56.1456 52.1229C58.5282 43.55 51.6858 39.8803 47.9667 39.117C32.4911 40.7338 14.9059 71.227 13.1268 79.3126C11.1622 88.2412 13.146 131.4 15.0034 139.873C16.4893 146.65 13.9411 145.828 12.4813 144.569C0.250111 140.621 -6.28049 111.192 -8.01688 96.971C-11.682 80.2526 -19.2674 83.4546 -22.602 87.1454C-55.8629 116.34 -28.902 206.918 -18.6572 221.247C-10.4614 232.71 4.25086 237.535 10.5825 238.515C6.78873 249.291 17.1582 271.209 22.8171 280.821C35.3281 309.807 65.9331 314.581 79.6717 313.345C101.421 318.049 131.673 310.233 149.623 305.705C156.916 303.866 197.608 281.571 204.595 272.936C210.184 266.028 201.342 262.599 196.223 261.748C184.685 260.963 165.805 254.407 157.807 251.227C143.78 243.41 141.001 235.772 141.364 232.93C179.488 253.459 203.083 241.936 214.427 234.079C246.936 211.561 243.161 186.935 242.17 182.416C241.377 178.801 225.135 183.017 225.171 183.183C225.208 183.349 222.505 183.823 222.347 183.802C216.981 183.084 206.576 179.367 202.045 177.598C191.268 173.804 189.255 168.76 189.595 166.712C203.578 172.171 226.674 162.135 236.474 156.435C248.969 151.328 249.936 142.237 253.271 138.546C255.938 135.593 250.172 118.112 246.956 109.74C242.715 101.199 235.492 105.15 232.41 108.194C226.016 115.752 218.016 119.044 214.816 119.746C198.947 120.265 206.428 113.889 206.25 110.377C206.108 107.567 221.98 100.22 229.933 96.8974C242.597 89.859 238.164 55.2347 236.283 47.5569Z" fill="#0A2A5C"/>
<path d="M154.892 129.923C157.306 127.974 164.294 117.01 167.487 111.771C165.506 102.734 133.584 138.936 117.871 158.166L117.251 155.342C120.934 148.378 110.366 114.033 104.621 97.7313C100.988 87.636 97.8358 94.6806 96.7141 99.4649C88.6555 110.229 102.849 147.252 110.954 164.418C108.996 168.991 82.4199 185.472 79.5264 188.475C77.2115 190.876 70.1853 194.469 66.9615 195.965C68.1867 188.593 62.9883 167.041 60.236 157.186C56.7689 141.372 49.5575 133.679 46.3851 131.809C33.4142 142.286 57.183 190.147 60.6684 197.165L60.7486 197.327C63.9289 203.733 58.0874 206.79 55.0853 203.896C52.0831 201.002 8.43633 177.422 4.37406 172.393C1.12423 168.369 -0.817838 167.611 -1.38266 167.735C-5.15211 169.982 -0.394251 180.344 2.45585 185.244C4.94753 191.209 7.33059 191.279 21.9157 201.104C33.5838 208.965 44.8673 209.491 49.0505 208.771C46.7912 209.266 14.3733 228.804 10.1568 233.872C6.78353 237.927 9.32908 238.197 11.0235 237.826C36.0685 230.559 52.6566 219.819 56.4864 218.388C59.5503 217.242 60.1874 218.168 60.1229 218.774C59.5355 231.216 64.6298 243.832 67.2503 248.586C69.742 254.551 87.8398 264.198 90.6639 263.579C93.4879 262.96 102.262 265.18 101.395 261.226C100.702 258.064 91.6407 250.934 87.1968 247.764C84.2442 245.097 79.3018 237.853 77.1997 234.565C76.4629 229.044 68.4017 218.735 64.4633 214.271C88.4234 204.756 112.445 183.823 121.461 174.546C145.479 197.694 162.725 198.057 170.246 199.96C176.262 201.482 175.27 197.675 174.021 195.58L159.506 183.372C152.3 176.427 133.658 171.674 125.237 170.166L145.631 144.385C158.854 147.997 180.317 143.292 175.953 134.186C171.588 125.079 151.874 132.361 154.892 129.923Z" fill="#F3DEE5"/>
</g>
</svg>
