<svg width="335" height="276" viewBox="0 0 335 276" fill="none" xmlns="http://www.w3.org/2000/svg">
<g opacity="0.3">
<path d="M89.6284 225.892C94.54 215.56 91.1938 203.705 88.9068 199.069C92.4819 193.38 99.5449 183.751 99.1961 190.739C98.8472 197.728 104.985 214.667 108.097 222.263C121.052 246.52 139.395 229.922 139.947 217.156C140.388 206.944 121.547 187.304 112.071 178.761L142.413 159.155C142.558 156.243 143.044 152.696 143.826 161.801C144.803 173.183 154.827 213.177 175.38 203.9C191.823 196.479 191.333 182.343 187.564 175.286C179.002 159.255 169.114 151.13 162.26 148.555C171.56 142.265 189.784 130.68 188.281 134.658C186.401 139.629 188.852 155.893 198.51 173.975C206.236 188.441 220.281 194.091 225.077 188.695C243.441 156.214 209.897 131.616 207.777 127.646C206.081 124.471 229.065 117.977 240.769 115.127C239.565 117.471 238.247 126.111 242.609 141.92C248.061 161.682 264.205 167.653 277.441 156.194C287.695 147.316 273.293 121.186 263.618 108.025L343.607 87.9785L330.982 76.0153L257.965 97.4404C262.922 73.8199 250.944 60.9445 248.854 58.0928C246.764 55.2411 232.581 43.5435 222.151 63.2849C211.721 83.0263 242.002 111.067 237.236 108.511C233.423 106.467 212.71 114.241 202.83 118.384C195.187 75.4183 172.068 72.4612 162.891 72.2607C153.715 72.0602 153.344 91.531 159.879 101.645C165.108 109.736 178.637 122.614 184.748 128.042L158.726 141.94C157.871 137.862 153.376 125.978 142.238 111.067C131.1 96.1558 120.73 98.7462 116.938 101.905C112.175 105.016 105.075 114.93 114.778 129.701C124.481 144.471 137.535 149.668 142.849 150.42L105.04 175.148C96.5521 145.67 81.9039 143.857 75.6409 146.635C71.1904 147.501 62.3325 152.496 62.5049 165.555C62.6772 178.613 80.5656 185.574 89.4883 187.421L82.7875 196.102C77.6871 192.213 64.1466 186.671 50.7872 195.62C34.0878 206.807 35.1001 227.806 44.1664 240.536C51.4194 250.72 63.8376 248.358 69.1401 245.904C78.5743 244.039 86.7299 231.786 89.6284 225.892Z" fill="#4F7EDD"/>
</g>
</svg>
