<svg width="168" height="445" viewBox="0 0 168 445" fill="none" xmlns="http://www.w3.org/2000/svg">
<path d="M78.0954 326.873C97.6184 326.873 113.445 319.377 113.445 310.128C113.445 300.881 97.6184 293.384 78.0954 293.384C58.5722 293.384 42.7455 300.881 42.7455 310.128C42.7455 319.377 58.5722 326.873 78.0954 326.873Z" fill="#1B1E21"/>
<path d="M104.168 366.052C108.687 366.052 112.358 369.679 112.431 374.18L112.432 374.317V425.739C112.432 430.303 108.732 434.003 104.168 434.003C99.6495 434.003 95.9779 430.377 95.9049 425.875L95.9038 425.739V374.317C95.9038 369.752 99.6038 366.052 104.168 366.052Z" fill="#EBBAAA"/>
<path d="M61.626 366.101C66.1178 365.61 70.1616 368.816 70.7232 373.283L70.7391 373.419L75.8596 420.274C76.3554 424.811 73.0793 428.891 68.542 429.387C64.0502 429.878 60.0064 426.672 59.4448 422.205L59.4289 422.07L54.3084 375.214C53.8126 370.677 57.0888 366.597 61.626 366.101Z" fill="#EBBAAA"/>
<path d="M75.6027 416.887C66.5426 418.723 60.5027 417.652 58.9211 416.887L59.8394 427.14L69.481 431.732L76.8271 425.61C76.521 423.008 75.9088 419.947 75.6027 416.887Z" fill="#3F4248"/>
<path d="M95.8039 417.193C104.864 419.029 110.904 417.958 112.485 417.193V427.446L102.844 432.038L95.4978 425.916C95.8039 423.314 95.4978 420.253 95.8039 417.193Z" fill="#3F4248"/>
<path d="M40.0966 291.392H81.4179L79.8875 406.633V414.043H51.7278L50.4685 404.646L40.0966 291.392Z" fill="#1B1E21"/>
<path d="M81.0244 293.235H122.486L120.677 405.868L118.84 414.438L92.2109 416.274L91.2127 407.092L81.0244 293.235Z" fill="#1B1E21"/>
<path d="M49.8915 411.989H80.4999V419.335H50.7439L49.8915 411.989Z" fill="#0A0A0B"/>
<path d="M91.2129 412.601H119.985L118.76 419.335H92.3586L91.2129 412.601Z" fill="#0A0A0B"/>
<path d="M147.277 438.619C147.277 429.222 141.239 428.074 131.398 424.854C126.578 423.278 121.66 421.904 116.669 421.077C113.532 420.557 112.689 423.315 107.18 423.315C102.267 423.315 96.1371 420.881 94.8677 420.355C94.7086 420.287 94.5197 420.229 94.393 420.346C94.3624 420.373 94.3367 420.41 94.3174 420.447C93.7306 421.653 90.6514 428.227 90.6514 433.489C90.6514 437.514 90.3068 441.472 91.4166 443.516C91.9174 444.437 95.044 444.943 96.0939 444.943H145.574C146.515 444.943 147.277 439.558 147.277 438.619Z" fill="#678EAB"/>
<mask id="mask0_1_165" style="mask-type:alpha" maskUnits="userSpaceOnUse" x="90" y="419" width="58" height="26">
<path fill-rule="evenodd" clip-rule="evenodd" d="M147.277 438.619C147.277 433.792 145.683 431.141 142.8 429.268C129.078 420.361 111.285 419.941 94.9366 419.335C94.8028 419.335 94.3759 420.327 94.3174 420.446C93.7306 421.652 90.6514 428.227 90.6514 433.489C90.6514 437.514 90.3068 441.471 91.4166 443.516C91.9174 444.437 95.044 444.942 96.0939 444.942H145.574C146.515 444.942 147.277 439.558 147.277 438.619Z" fill="white"/>
</mask>
<g mask="url(#mask0_1_165)">
<path d="M140.084 432.191C144.828 432.191 146.155 429.436 146.665 428.977C147.583 430.049 146.818 434.364 147.43 436.323C148.042 438.282 147.175 440.201 146.665 440.915L103.966 442.904C103.711 438.824 103.354 430.661 103.966 430.661C104.731 430.661 109.629 424.08 112.23 423.927C114.312 423.804 124.423 426.428 129.218 427.753C128.606 428.365 127.596 431.487 127.229 432.956C126.769 434.793 126.616 434.793 128.3 435.252C129.983 435.711 130.289 432.191 132.126 432.191H140.084Z" fill="#35455F"/>
<path d="M107.639 430.814C106.905 429.589 95.0898 427.854 90.3455 427.294L88.2029 440.455L112.077 441.833C110.904 438.671 108.374 432.038 107.639 430.814Z" fill="#071427"/>
<path d="M120.189 440.302C127.994 439.996 134.728 441.833 143.298 439.996C158.602 438.313 150.739 439.314 154.623 446.758H94.6049C88.662 445.353 86.6902 436.694 91.1107 437.395C100.752 438.925 114.217 440.538 120.189 440.302Z" fill="#D1CEC8"/>
<path d="M88.8148 439.996C90.8962 440.853 119.117 440.914 120.035 440.302C117.893 439.843 102.124 438.056 98.6095 437.854C93.253 437.547 91.2124 437.14 88.8148 437.241C87.9474 437.854 86.7334 439.139 88.8148 439.996Z" fill="#DEDEDE"/>
<path d="M116.831 420.061C117.276 419.79 117.856 419.931 118.126 420.376C118.397 420.821 118.256 421.401 117.811 421.671L117.537 421.831C117.175 422.04 116.589 422.376 116.339 422.525L116.191 422.616L115.994 422.741L122.68 421.202C123.523 421.008 124.151 421.953 123.671 422.651L123.64 422.694L121.81 425.082L129.266 422.962C130.186 422.7 130.855 423.809 130.225 424.499L130.188 424.538L126.119 428.575C125.749 428.942 125.152 428.939 124.786 428.57C124.434 428.215 124.422 427.651 124.748 427.282L124.791 427.237L126.263 425.776L119.591 427.674C118.735 427.917 118.059 426.954 118.553 426.237L118.584 426.194L120.55 423.627L113.819 425.176C113.247 425.308 112.701 424.891 112.667 424.314L112.665 424.257C112.665 422.964 113.558 422.028 115.202 421.01L115.405 420.887C115.798 420.653 116.688 420.148 116.831 420.061Z" fill="#0980D0"/>
<path fill-rule="evenodd" clip-rule="evenodd" d="M114.773 417.053C114.821 414.317 116.631 412.296 119.014 412.296C120.19 412.296 121.149 412.787 121.81 413.691C122.445 414.556 122.785 415.77 122.785 417.166C122.785 418.454 122.018 419.614 120.711 420.485C119.552 421.256 118.063 421.72 116.814 421.72C116.215 421.72 115.775 421.612 115.465 421.394C115.177 421.193 114.99 420.898 114.882 420.483C114.787 420.123 114.751 419.684 114.749 419.048L114.749 418.843L114.769 417.61L114.773 417.053ZM120.29 414.805C119.981 414.383 119.587 414.181 119.014 414.181C117.697 414.181 116.657 415.364 116.657 417.166L116.655 417.549L116.637 418.675C116.635 418.792 116.634 418.878 116.634 418.966L116.637 419.248C116.641 419.474 116.652 419.652 116.668 419.79L116.673 419.831L116.718 419.834L116.814 419.835C117.686 419.835 118.812 419.484 119.666 418.916C120.492 418.366 120.9 417.749 120.9 417.166C120.9 416.147 120.669 415.321 120.29 414.805Z" fill="#0980D0"/>
<path fill-rule="evenodd" clip-rule="evenodd" d="M110.165 416.411C109.366 416.768 108.862 417.388 108.682 418.193C108.51 418.962 108.642 419.879 109.058 420.817C109.443 421.679 110.309 422.224 111.457 422.412C112.473 422.58 113.622 422.442 114.47 422.065L114.559 422.024C114.848 421.885 115.054 421.735 115.194 421.57L115.234 421.52L115.253 421.495L115.276 421.461L115.295 421.422L115.332 421.36C115.354 421.319 115.361 421.3 115.378 421.252L115.396 421.197L115.41 421.139L115.423 421.065C115.441 420.94 115.438 420.804 115.414 420.653C115.373 420.405 115.28 420.126 115.121 419.754L115.029 419.545L114.556 418.524C114.537 418.483 114.519 418.442 114.498 418.395C113.663 416.521 111.802 415.683 110.165 416.411ZM113.708 420.776L113.565 420.748L113.572 420.715L113.595 420.637L113.616 420.588L113.666 420.483L113.704 420.42L114.062 420.116L114.069 420.113C114.161 420.082 114.289 420.049 114.486 419.999L113.708 420.776ZM112.776 419.161L112.736 419.076C112.299 418.177 111.552 417.857 110.933 418.133C110.681 418.245 110.573 418.378 110.522 418.605C110.445 418.947 110.519 419.46 110.781 420.049C110.875 420.26 111.187 420.456 111.763 420.551C112.266 420.634 112.838 420.599 113.306 420.477L113.371 420.458L113.262 420.214L112.944 419.53L112.776 419.161Z" fill="#0980D0"/>
</g>
<path d="M24.4865 438.619C24.4865 429.222 30.5242 428.074 40.3649 424.854C45.1848 423.278 50.1039 421.904 55.0949 421.077C58.2314 420.557 59.074 423.315 64.5835 423.315C69.4968 423.315 75.6264 420.881 76.8958 420.355C77.0549 420.287 77.2435 420.229 77.3702 420.346C77.4008 420.373 77.4268 420.41 77.4458 420.447C78.0326 421.653 81.1121 428.227 81.1121 433.489C81.1121 437.514 81.4567 441.472 80.3469 443.516C79.8461 444.437 76.7195 444.943 75.6693 444.943H26.1891C25.2488 444.943 24.4865 439.558 24.4865 438.619Z" fill="#678EAB"/>
<mask id="mask1_1_165" style="mask-type:alpha" maskUnits="userSpaceOnUse" x="24" y="419" width="58" height="26">
<path fill-rule="evenodd" clip-rule="evenodd" d="M24.4865 438.619C24.4865 433.792 26.0799 431.141 28.9637 429.268C42.6856 420.361 60.4777 419.941 76.8268 419.335C76.9603 419.335 77.3873 420.327 77.4457 420.446C78.0325 421.652 81.112 428.227 81.112 433.489C81.112 437.514 81.4567 441.471 80.3468 443.516C79.846 444.437 76.7194 444.942 75.6692 444.942H26.189C25.2487 444.942 24.4865 439.558 24.4865 438.619Z" fill="white"/>
</mask>
<g mask="url(#mask1_1_165)">
<path d="M31.6795 432.191C26.9352 432.191 25.6088 429.436 25.0987 428.977C24.1804 430.049 24.9456 434.364 24.3335 436.323C23.7213 438.282 24.5885 440.201 25.0987 440.915L67.7974 442.904C68.0524 438.824 68.4096 430.661 67.7974 430.661C67.0322 430.661 62.1349 424.08 59.5332 423.927C57.4518 423.804 47.3409 426.428 42.5455 427.753C43.1577 428.365 44.1678 431.487 44.5351 432.956C44.9942 434.793 45.1472 434.793 43.4638 435.252C41.7803 435.711 41.4742 432.191 39.6377 432.191H31.6795Z" fill="#35455F"/>
<path d="M64.1243 430.814C64.8589 429.589 76.6737 427.854 81.418 427.294L83.5606 440.455L59.686 441.833C60.8593 438.671 63.3897 432.038 64.1243 430.814Z" fill="#071427"/>
<path d="M51.5753 440.302C43.7701 439.996 37.0363 441.833 28.4659 439.996C13.1617 438.313 21.0245 439.314 17.1408 446.758H77.159C83.1019 445.353 85.0737 436.694 80.6533 437.395C71.0116 438.925 57.547 440.538 51.5753 440.302Z" fill="#D1CEC8"/>
<path d="M82.9488 439.996C80.8675 440.853 52.6465 440.914 51.7283 440.302C53.8709 439.843 69.64 438.056 73.1542 437.854C78.5106 437.547 80.5513 437.14 82.9488 437.241C83.816 437.854 85.0302 439.139 82.9488 439.996Z" fill="#DEDEDE"/>
<path d="M53.6372 420.376C53.9078 419.931 54.4877 419.79 54.9325 420.061L55.4104 420.337C55.7768 420.548 56.2448 420.817 56.4455 420.939C58.1642 421.985 59.0987 422.934 59.0987 424.257C59.0987 424.844 58.5698 425.284 57.9998 425.187L57.9446 425.176L51.2138 423.627L53.1797 426.194C53.7207 426.9 53.0727 427.883 52.2245 427.687L52.1734 427.674L45.5005 425.776L46.9727 427.237C47.3275 427.589 47.3438 428.153 47.0201 428.524L46.9779 428.57C46.6259 428.925 46.0617 428.941 45.6902 428.617L45.6447 428.575L41.5757 424.538C40.897 423.864 41.536 422.738 42.4457 422.949L42.4975 422.962L49.9533 425.082L48.1244 422.694C47.5981 422.007 48.1978 421.044 49.0318 421.192L49.0842 421.202L55.7697 422.741L55.5733 422.616L55.3775 422.497C55.0056 422.277 54.1244 421.776 53.9527 421.671C53.5079 421.401 53.3666 420.821 53.6372 420.376Z" fill="#0980D0"/>
<path fill-rule="evenodd" clip-rule="evenodd" d="M49.9524 413.692C50.6143 412.787 51.5728 412.296 52.7497 412.296C55.1657 412.296 56.992 414.373 56.992 417.166L56.9938 417.524L57.0141 418.819L57.0138 419.173C57.0074 419.743 56.9698 420.147 56.8817 420.483C56.7733 420.898 56.5875 421.192 56.3 421.394C55.9871 421.613 55.548 421.72 54.9496 421.72C53.7007 421.72 52.2121 421.256 51.0528 420.485C49.745 419.614 48.9791 418.455 48.9791 417.166C48.9791 415.77 49.3184 414.555 49.9524 413.692ZM55.1061 417.066C55.0686 415.321 54.0426 414.181 52.75 414.181C52.1772 414.181 51.7829 414.383 51.4732 414.807C51.0951 415.321 50.8645 416.147 50.8645 417.166C50.8645 417.749 51.2721 418.366 52.0978 418.916C52.9521 419.484 54.0785 419.835 54.9501 419.835C54.996 419.835 55.0378 419.834 55.0758 419.832L55.0909 419.831L55.0963 419.79C55.1151 419.631 55.1264 419.417 55.1292 419.139L55.1299 419.043C55.13 418.987 55.1299 418.932 55.1296 418.874L55.1115 417.734L55.1061 417.066Z" fill="#0980D0"/>
<path fill-rule="evenodd" clip-rule="evenodd" d="M57.0241 418.922L56.7607 419.49C56.743 419.528 56.7268 419.564 56.7112 419.599L56.6884 419.651C56.5017 420.074 56.3949 420.381 56.3508 420.65C56.3262 420.804 56.323 420.939 56.3405 421.064L56.3555 421.148C56.3596 421.182 56.3637 421.206 56.3759 421.237L56.3942 421.276L56.3995 421.29C56.4097 421.317 56.4187 421.336 56.4386 421.371L56.4958 421.467L56.4937 421.469C56.6421 421.692 56.8964 421.887 57.2931 422.064C58.1425 422.442 59.2916 422.58 60.3087 422.412C61.4557 422.224 62.3212 421.679 62.705 420.819C63.1226 419.879 63.2547 418.962 63.0813 418.192C62.9013 417.388 62.3978 416.768 61.6002 416.412C59.9898 415.695 58.1638 416.493 57.3092 418.3L57.0241 418.922ZM57.2854 420.006L58.0286 420.404L58.128 420.557C58.1384 420.574 58.1472 420.588 58.1546 420.602L58.1599 420.613L58.1658 420.628L58.1954 420.73C58.1967 420.736 58.1976 420.741 58.1988 420.748L58.1988 420.748L58.1988 420.748L58.1216 420.763L57.2854 420.006ZM58.4774 420.268L58.3924 420.458L58.4577 420.477C58.8898 420.589 59.4108 420.627 59.8852 420.567L60.0028 420.55C60.5769 420.456 60.8892 420.259 60.9823 420.051C61.2448 419.46 61.3187 418.947 61.2413 418.604C61.1907 418.377 61.0827 418.244 60.8327 418.133C60.193 417.848 59.4176 418.198 58.9882 419.161L58.4774 420.268Z" fill="#0980D0"/>
</g>
<path d="M21.3516 207.248C24.1967 201.678 31.0186 199.469 36.5888 202.314C42.1589 205.159 44.368 211.981 41.5229 217.551C37.3665 225.689 34.7338 238.888 35.236 250.995C35.7722 263.922 39.6502 273.742 46.0982 278.566L46.2944 278.71C51.3544 282.387 52.4758 289.47 48.7992 294.53C45.1225 299.59 38.0401 300.711 32.9801 297.034C19.916 287.542 13.4066 271.254 12.6052 251.934C11.9469 236.063 15.3513 218.996 21.3516 207.248Z" fill="#EBBAAA"/>
<path d="M124.743 195.576C130.19 192.503 137.098 194.428 140.171 199.876C147.944 213.656 152.713 232.631 153.122 250.343C153.333 259.487 152.373 268.005 150.172 275.278C147.544 283.956 143.159 290.903 136.762 295.341C131.623 298.906 124.567 297.63 121.002 292.491C117.472 287.403 118.687 280.437 123.699 276.839L123.852 276.731C127.844 273.961 130.786 264.24 130.478 250.866C130.151 236.719 126.296 221.38 120.443 211.004C117.37 205.557 119.295 198.649 124.743 195.576Z" fill="#EBBAAA"/>
<path d="M42.4094 183.686C42.665 173.152 51.0982 164.647 61.6291 164.303L86.215 163.498C88.2183 163.435 90.225 163.539 92.2093 163.814L116.208 167.133C126.796 168.596 134.33 178.168 133.264 188.803L128.724 234.07L131.001 298.921C131.024 299.476 104.624 298.95 104.069 298.921H61.6291L37.5069 295.281C36.9737 295.252 36.5666 294.788 36.611 294.255L41.3244 228.432L42.4094 183.686Z" fill="#1D1E1F"/>
<path d="M82.3716 190.928C94.5685 190.928 104.456 181.04 104.456 168.843C104.456 156.647 94.5685 146.759 82.3716 146.759C70.1748 146.759 60.2874 156.647 60.2874 168.843C60.2874 181.04 70.1748 190.928 82.3716 190.928Z" fill="#363535"/>
<rect x="70.4004" y="145.084" width="26.9354" height="36.424" rx="8.85846" fill="#EBBAAA"/>
<rect x="31.2646" y="161.307" width="45.2123" height="110.081" rx="17.2575" transform="rotate(16.5 31.2646 161.307)" fill="#1E4295"/>
<path d="M25.366 291.169C20.7651 287.376 9.10903 266.994 6.42804 257.876L36.4025 242.177C39.2577 254.055 46.6894 267.447 52.1316 281.692L52.0927 281.718C46.7237 285.346 31.1033 295.899 25.366 291.169Z" fill="#1E4295"/>
<path d="M23.8863 289.74L32.6461 284.411C38.6603 280.752 46.8514 276.843 49.9894 274.933L52.0001 281.771C48.9077 283.952 41.1154 288.967 34.6852 291.59C28.2551 294.212 24.8067 291.449 23.8863 289.74Z" fill="#172F72"/>
<path d="M13.4674 241.807L35.6586 248.541L11.4778 246.245L13.4674 241.807Z" fill="#172F72"/>
<path d="M18.9772 250.683L36.1181 249.765L21.2729 254.509L18.9772 250.683Z" fill="#172F72"/>
<rect width="48.3567" height="118.855" rx="18.4578" transform="matrix(-0.96141 0.275121 0.275121 0.96141 135.301 159.751)" fill="#1E4295"/>
<path d="M86.0101 245.786C85.7671 225.23 78.9702 197.012 78.9702 187.171C76.8276 187.171 74.685 186.865 73.1546 185.946C73.2372 178.036 73.7968 169.924 70.435 162.531L44.2575 167.573C40.1799 173.184 33.0059 189.95 31.8547 222.063C30.9395 247.585 31.8856 264.782 31.8547 281.292C31.8464 285.556 37.9549 288.692 37.9549 300.171C42.9922 301.627 69.4593 305.35 86.0101 300.171C89.071 280.067 86.3701 276.216 86.0101 245.786Z" fill="#173988"/>
<path d="M62.441 295.218C55.5847 295.708 43.4638 293.535 36.4238 291.086V301.493C40.4029 304.554 50.6567 304.248 56.3193 304.248C63.3592 304.248 74.6843 306.391 86.9277 304.554L86.3155 295.218C82.0304 296.137 69.2973 294.729 62.441 295.218Z" fill="#172F72"/>
<path d="M146.494 291.212C150.784 287.07 159.657 271.899 161.616 262.6L131.653 243.235C129.737 255.3 120.471 263.992 116.162 278.619C121.76 281.793 141.132 296.39 146.494 291.212Z" fill="#1E4295"/>
<path d="M135.102 282.879C131.036 280.823 120.968 275.218 117.691 273.561C116.618 273.762 116.386 277.498 118.074 279.586C120.184 282.196 132.269 288.821 139.101 291.59C144.566 293.805 147.087 291.398 147.664 289.917C145.003 288.057 140.974 285.849 135.102 282.879Z" fill="#172F72"/>
<path d="M152.583 239.052L130.392 245.786L154.572 243.49L152.583 239.052Z" fill="#172F72"/>
<path d="M148.451 248.847L131.31 247.928L146.155 252.673L148.451 248.847Z" fill="#172F72"/>
<path d="M83.5618 242.113C83.5618 212.665 86.775 196.206 86.775 186.684C88.4585 186.684 90.1267 187.143 92.4376 186.377C93.5343 178.236 96.4981 168.923 99.5951 161.919L117.361 164.784C121.78 165.496 125.659 168.066 126.642 172.434C128.819 182.114 130.069 200.193 132.057 223.786C134.066 247.622 133.068 267.685 134.066 284.046C134.377 289.15 127.37 297.47 127.638 300.797C118.835 302.05 100.972 305.809 85.3983 300.797C85.3983 280.749 83.5618 271.56 83.5618 242.113Z" fill="#173988"/>
<path d="M105.293 296.902C112.149 297.392 125.495 296.749 131.31 292.004L131.922 302.717C125.801 304.248 117.383 305.472 115.088 305.472C105.174 305.472 96.7227 307.003 84.4794 305.166V294.912C88.7645 295.831 98.4368 296.412 105.293 296.902Z" fill="#172F72"/>
<path d="M80.347 283.74C80.347 275.415 79.0716 223.748 76.827 199.261L73.6132 186.405L80.1937 186.712C80.7174 190.957 81.8774 193.905 83.7139 202.781L86.7745 186.712L91.9779 186.405C91.9779 192.119 89.6826 204.893 89.6826 210.28V305.778L80.347 305.166V283.74Z" fill="#143481"/>
<path d="M81.8782 202.384L85.5491 202.26L85.6231 204.478C86.8106 240.686 87.5568 293.527 86.7935 305.11L86.7694 305.455L83.1065 305.184C83.9034 294.425 83.1309 239.922 81.9151 203.483L81.8782 202.384Z" fill="#122865"/>
<path d="M117.135 166.51C120.563 164.796 112.85 161.307 109.483 159.47C106.728 158.654 100.668 156.777 97.2397 161.919C94.9153 165.406 88.3054 176.611 86.7634 186.712C85.0916 194.976 85.1378 197.473 87.5402 194.517C105.446 172.479 112.85 168.653 117.135 166.51Z" fill="#172F72"/>
<path d="M51.1166 167.122C47.6885 165.408 55.4018 161.919 58.7687 160.082C61.5235 159.266 67.5839 157.389 71.0121 162.531C73.3974 166.109 77.8668 176.965 80.5001 187.936C82.3366 195.588 81.9273 196.506 80.5001 194.976C63.5124 176.764 55.4018 169.265 51.1166 167.122Z" fill="#172F72"/>
<path fill-rule="evenodd" clip-rule="evenodd" d="M85.3975 201.71H81.8775L81.5714 204.159L80.6158 210.529C80.3939 212.01 81.5405 213.341 83.0376 213.341H84.2377C85.7348 213.341 86.8814 212.01 86.6591 210.529L85.7035 204.159L85.3975 201.71ZM82.3365 204.771L82.6427 202.628H84.8017L85.0916 204.771H82.3365ZM82.8296 212.117H84.6379C85.5067 212.117 86.1584 211.323 85.9891 210.47C85.8609 209.826 85.2952 209.362 84.6379 209.362H82.8296C82.184 209.362 81.625 209.81 81.4848 210.44C81.2938 211.301 81.9483 212.117 82.8296 212.117Z" fill="#09193F"/>
<path d="M82.7465 201.246L82.9308 203.142C82.97 203.545 83.3088 203.853 83.7142 203.853C84.1195 203.853 84.4583 203.545 84.4975 203.142L84.6818 201.246C84.7375 200.674 84.2884 200.179 83.7142 200.179C83.1399 200.179 82.6908 200.674 82.7465 201.246Z" fill="#2E4A7A"/>
<path d="M31.5264 235.073C35.0221 235.073 39.3298 237.493 43.4962 241.277C47.2579 244.694 50.2335 248.653 50.902 251.401C51.528 253.975 51.2977 259.756 50.4408 268.998L50.3304 270.172C50.227 271.256 50.116 272.38 49.9948 273.573L49.7707 275.743C49.5097 278.23 48.9948 283.059 48.8926 284.054L48.7604 285.372C48.5763 287.255 48.4935 288.362 48.5107 288.672C48.594 290.171 49.0613 292.026 49.5256 293.204L49.5771 293.332L49.7069 293.647L49.9532 296.756L49.9989 297.371C50.0642 298.275 50.1158 299.105 50.1542 299.903L50.1665 300.168C50.2316 301.623 50.2475 302.899 50.2039 303.994L50.1951 304.197L45.9147 303.993C45.959 303.063 45.9506 301.928 45.8963 300.609L45.8856 300.36C45.8443 299.438 45.7838 298.469 45.703 297.382L45.4849 294.636L45.427 294.482C44.8701 292.978 44.3733 290.941 44.2449 289.112L44.2322 288.91L44.2271 288.785C44.2082 288.094 44.3099 286.792 44.5489 284.413L45.0549 279.59C45.2708 277.553 45.5055 275.338 45.6075 274.351L45.7712 272.748C45.8237 272.228 45.8743 271.721 45.9231 271.225L46.0646 269.765C46.9452 260.528 47.2209 254.398 46.7382 252.414C46.3205 250.697 43.7975 247.339 40.6151 244.449C37.2221 241.367 33.7815 239.417 31.6236 239.36L31.5264 239.358V235.073Z" fill="#142C6F"/>
<path opacity="0.1" d="M31.6511 236.757C34.0847 236.605 37.9898 238.857 41.9786 242.405C45.7406 245.752 48.7086 249.505 49.2666 251.799C49.8404 254.158 49.5863 260.111 48.7093 269.437L48.6549 270.012C48.5518 271.093 48.4412 272.213 48.3203 273.403L48.0966 275.569L47.1861 284.197C46.9232 286.78 46.8075 288.217 46.8288 288.735L46.8302 288.765C46.9247 290.466 47.4363 292.497 47.9641 293.832L48.0485 294.04L48.275 296.85L48.3399 297.723C48.4072 298.667 48.4582 299.531 48.4932 300.363L48.5032 300.611C48.5507 301.84 48.5592 302.942 48.5225 303.91L48.5139 304.116L47.5966 304.074C47.6386 303.151 47.6361 302.092 47.5951 300.903L47.5857 300.647C47.5479 299.667 47.4873 298.647 47.4034 297.503L47.1436 294.253L47.1132 294.178C46.5697 292.806 46.0511 290.774 45.9253 289.005L45.9134 288.816C45.8887 288.372 45.9547 287.384 46.1189 285.658L46.3049 283.788C46.4215 282.652 47.0699 276.576 47.2736 274.609L47.4466 272.917C47.5519 271.874 47.6493 270.884 47.7408 269.925L47.872 268.524C48.6729 259.812 48.8961 254.161 48.3744 252.016C47.2464 247.379 36.2939 237.599 31.8413 237.669L31.7084 237.674L31.6511 236.757Z" fill="white"/>
<path d="M132.84 234.161V238.446C130.657 238.446 127.125 240.411 123.643 243.544L123.353 243.808C120.277 246.636 117.87 249.844 117.461 251.507C116.975 253.488 117.253 259.617 118.142 268.851L118.285 270.311C118.371 271.179 118.462 272.08 118.561 273.027L119.59 282.702C119.908 285.763 120.032 287.278 119.992 287.999C119.882 289.949 118.338 294.707 117.239 297.454L117.201 297.547L117.191 297.708L117.171 298.079C117.083 299.913 117.097 302.359 117.216 304.963L117.228 305.216L112.947 305.422L112.922 304.875C112.793 301.877 112.798 299.084 112.938 297.074L112.977 296.55L113.109 296.232C113.342 295.673 113.913 294.117 114.398 292.675L114.524 292.296C115.207 290.228 115.651 288.56 115.71 287.812L115.713 287.759C115.731 287.45 115.647 286.343 115.461 284.461L115.293 282.812C115.113 281.103 114.522 275.618 114.341 273.88L114.175 272.267C114.108 271.613 114.044 270.979 113.983 270.36L113.876 269.261C112.92 259.33 112.641 253.168 113.3 250.485C113.975 247.734 116.979 243.775 120.777 240.358C124.921 236.629 129.204 234.227 132.695 234.162L132.84 234.161Z" fill="#142C6F"/>
<path opacity="0.1" d="M122.293 241.492C126.266 237.99 130.158 235.752 132.618 235.841L132.715 235.845L132.658 236.762C128.249 236.489 116.977 246.421 115.826 251.105L115.794 251.245C115.283 253.609 115.569 259.694 116.466 269.012L116.537 269.738C116.632 270.714 116.734 271.726 116.844 272.796L117.916 282.876C118.218 285.79 118.344 287.32 118.311 287.904C118.214 289.639 116.727 294.29 115.767 296.674L115.693 296.855L115.687 296.933C115.553 298.852 115.549 301.717 115.677 304.796L115.699 305.298L114.782 305.34L114.76 304.834C114.63 301.725 114.634 298.829 114.771 296.871L114.788 296.641L114.817 296.573C115.713 294.415 117.247 289.678 117.388 287.942L117.394 287.853C117.421 287.371 117.31 285.976 117.051 283.439L116.016 273.706L115.771 271.323C115.694 270.559 115.621 269.821 115.552 269.1L115.418 267.678C114.597 258.837 114.373 253.174 114.935 250.886C115.498 248.592 118.495 244.838 122.293 241.492Z" fill="white"/>
<path d="M108.064 168.806C108.959 168.837 110.057 169.152 110.797 169.634C111.808 170.293 112.15 171.249 111.495 172.268C110.828 173.307 109.874 173.306 108.964 172.535C108.422 172.075 107.898 171.367 107.429 170.561L107.342 170.409L108.141 169.957C108.583 170.738 109.084 171.432 109.558 171.834C110.085 172.282 110.395 172.282 110.723 171.772C111.071 171.23 110.922 170.811 110.296 170.403C109.735 170.038 108.865 169.778 108.15 169.73L108.032 169.724L108.064 168.806Z" fill="#1E1C1C"/>
<path d="M63.0448 172.735C62.8951 171.837 61.6972 170.788 60.499 170.489C59.0024 170.489 59.6006 171.837 60.499 172.735C61.3975 173.634 63.1945 173.634 63.0448 172.735Z" fill="#020D2B"/>
<path d="M61.082 171.228L61.1137 172.146C60.3959 172.171 59.4817 172.433 58.904 172.809C58.296 173.205 58.1517 173.609 58.4893 174.134C58.8065 174.628 59.1023 174.627 59.6142 174.193C60.0495 173.824 60.5088 173.201 60.9208 172.493L60.9975 172.36L61.797 172.811C61.3167 173.661 60.7732 174.414 60.2082 174.894C59.3137 175.652 58.3738 175.653 57.7168 174.631C57.0727 173.629 57.4096 172.687 58.4025 172.04C59.0936 171.589 60.103 171.288 60.9554 171.234L61.082 171.228Z" fill="#1E1C1C"/>
<path d="M106.057 170.337C106.21 169.418 107.435 168.347 108.659 168.041C110.189 168.041 109.578 169.418 108.659 170.337C107.741 171.255 105.904 171.255 106.057 170.337Z" fill="#020D2B"/>
<path d="M128.386 156.189C126.832 153.988 123.638 152.25 122.235 151.657L112.521 156.999C113.385 157.323 115.921 158.812 119.159 162.179C123.206 166.388 124.501 166.874 126.444 166.712C127.998 166.582 128.171 165.147 128.062 164.445C128.386 164.769 129.293 165.158 130.329 164.122C131.624 162.827 130.329 158.941 128.386 156.189Z" fill="#F5D4A1"/>
<path d="M36.1167 156.624C37.9027 154.576 41.2831 153.164 42.7502 152.715L51.9211 159.087C51.0224 159.322 48.327 160.553 44.7336 163.595C40.2415 167.399 38.8938 167.751 36.9652 167.387C35.4222 167.095 35.399 165.636 35.5802 164.943C35.222 165.235 34.2738 165.53 33.3442 164.383C32.182 162.948 33.8841 159.184 36.1167 156.624Z" fill="#F5D4A1"/>
<path d="M28.6649 120.251C29.5715 109.501 30.5536 88.251 30.9315 78.9696H135.186C135.564 87.5495 136.448 107.494 136.966 118.632C137.614 132.554 128.387 169.302 79.0115 165.579C29.6363 161.855 27.5317 133.687 28.6649 120.251Z" fill="#76CCDB"/>
<path d="M126.686 122.406C136.99 122.406 145.343 114.053 145.343 103.749C145.343 93.445 136.99 85.092 126.686 85.092C116.383 85.092 108.03 93.445 108.03 103.749C108.03 114.053 116.383 122.406 126.686 122.406Z" fill="#EBBAAA"/>
<path d="M39.7765 123.35C29.4727 123.35 21.1197 114.997 21.1197 104.693C21.1197 94.3894 29.4727 86.0364 39.7765 86.0364C50.0805 86.0364 58.4335 94.3894 58.4335 104.693C58.4335 114.997 50.0805 123.35 39.7765 123.35Z" fill="#EBBAAA"/>
<path d="M33.6693 71.5836C33.6693 44.8965 55.3036 23.2624 81.9908 23.2624C108.678 23.2624 130.312 44.8965 130.312 71.5836V94.4065L127.966 122.097C126.306 141.693 112.262 158.072 93.1696 162.789C85.8508 164.597 78.169 164.562 70.8702 162.675C52.6937 157.977 39.278 142.584 37.1072 123.935L33.6693 94.4065V71.5836Z" fill="#F4D4C9"/>
<path d="M73.8126 87.0946L73.2537 84.2544C73.1494 83.723 72.7156 83.3187 72.1779 83.2517L58.4748 81.5456C58.4154 81.5382 58.3554 81.5394 58.2966 81.5495L50.7963 82.8232C50.4946 82.8743 50.2742 83.1357 50.2742 83.4414V86.9936C50.2742 87.3535 50.5763 87.6397 50.9356 87.6198L61.3869 87.0471C61.4263 87.045 61.4661 87.0468 61.5053 87.0523L72.4077 88.5791C73.2617 88.6987 73.9792 87.9409 73.8126 87.0946Z" fill="#393939"/>
<path d="M91.5011 86.9198L91.9541 84.2866C92.0459 83.7528 92.4702 83.338 93.0058 83.2585L106.079 81.3133C106.138 81.3047 106.198 81.3044 106.257 81.3133L113.46 82.3604C113.763 82.4045 113.989 82.6604 113.997 82.9662L114.077 86.3276C114.085 86.6872 113.79 86.9804 113.43 86.9694L103.416 86.6597C103.376 86.6584 103.336 86.6612 103.298 86.6676L92.9409 88.3704C92.0897 88.5103 91.3548 87.7698 91.5011 86.9198Z" fill="#393939"/>
<path d="M102.844 93.9679C104.873 93.9679 106.517 95.6124 106.517 97.6409C106.517 99.6378 104.924 101.262 102.939 101.313L102.844 101.314H97.1037C95.0751 101.314 93.4307 99.6695 93.4307 97.6409C93.4307 95.6441 95.0241 94.0194 97.0089 93.9691L97.1037 93.9679H102.844Z" fill="black"/>
<path d="M67.1854 93.9679C69.2139 93.9679 70.8584 95.6124 70.8584 97.6409C70.8584 99.6378 69.2649 101.262 67.2802 101.313L67.1854 101.314H60.9107C58.8821 101.314 57.2377 99.6695 57.2377 97.6409C57.2377 95.6441 58.8311 94.0194 60.8159 93.9691L60.9107 93.9679H67.1854Z" fill="black"/>
<path d="M80.2373 99.8795L84.8931 102.518C82.9649 105.92 81.4744 109.871 81.2713 112.774L81.2585 112.982C81.1055 115.854 82.0939 117.014 85.3555 117.041L85.473 117.041V122.393C78.7572 122.393 75.5131 118.401 75.9328 112.401C76.1971 108.622 77.8838 104.092 80.106 100.113L80.2373 99.8795Z" fill="#EBBAAA"/>
<path d="M115.27 55.0286C109.903 48.7674 113.414 40.9592 112.763 35.4996C112.303 31.6325 112.255 30.646 123.248 38.7493C134.241 46.8522 135.889 64.6299 132.899 79.74L130.698 96.8443H128.249L129.014 87.54C129.014 87.54 128.555 84.9383 125.494 81.8774C122.434 78.8166 121.363 62.135 115.27 55.0286Z" fill="#6E6C6C"/>
<path d="M40.6895 65.5738C41.1437 57.3398 40.216 57.7638 40.5187 52.2745C40.7329 48.3863 42.073 49.2372 35.1316 56.3668C31.3006 60.3018 31.7316 77.2938 32.547 88.3504L33.5164 98.5415H36.0762C36.0762 98.5415 35.7731 94.7066 36.0762 92.8701C36.3789 91.0336 38.5674 89.4279 39.1333 85.9829C39.9432 81.0509 40.4223 70.4216 40.6895 65.5738Z" fill="#6E6C6C"/>
<path d="M39.4854 33.8224C47.5957 26.4764 55.5827 24.3338 66.1135 24.3338C66.4931 30.2627 60.3524 30.9798 62.2878 43.464C64.7071 59.0694 69.7027 60.0666 64.0101 63.2548C59.4562 65.8054 45.4538 74.9907 41.6277 79.2759C37.8017 83.561 37.8017 84.5935 35.8121 84.9384C33.8226 85.2834 32.4452 83.9568 30.6087 80.5899C28.7721 77.223 28.5439 76.9802 27.0879 69.7873C25.6318 62.5943 27.6867 44.509 39.4854 33.8224Z" fill="#272727"/>
<path d="M63.0528 77.8985C58.1555 78.2046 45.1545 82.1255 43.0043 79.8874C31.2204 54.0239 49.9282 26.7236 60.7569 23.2624C94.2734 12.5494 120.891 27.9859 128.402 39.3319C135.595 50.1979 136.513 73.6133 134.37 76.215C131.733 79.4173 125.871 81.566 120.137 79.8874C114.404 78.2086 103.146 79.7448 98.5586 77.8985C94.8889 76.421 82.0303 78.0512 74.531 77.8985C70.6761 77.8198 70.5206 62.3044 67.491 62.2882C63.5119 62.2668 65.4329 77.7497 63.0528 77.8985Z" fill="#272727"/>
<path d="M90.3204 130.687C91.5251 130.195 92.9012 130.772 93.394 131.976C93.8868 133.181 93.3098 134.557 92.1051 135.05C84.4696 138.174 77.3929 138.26 71.3971 134.929C70.2593 134.297 69.8493 132.862 70.4815 131.724C71.1136 130.586 72.5484 130.176 73.6862 130.808C78.3083 133.376 83.9145 133.308 90.3204 130.687Z" fill="#C99584"/>
<path fill-rule="evenodd" clip-rule="evenodd" d="M87.1198 91.7189C91.358 90.1625 96.769 89.0075 103.207 88.7336L103.553 88.7196C109.761 88.4822 114.938 89.0059 118.987 89.9382C120.582 90.3055 121.691 91.7018 121.776 93.3608C121.98 97.3236 122.121 100.871 122.137 103.182L122.139 103.609C122.139 105.725 121.667 108.081 120.923 110.445C120.438 111.987 118.993 113.005 117.352 113.021L92.6137 113.27C91.195 113.284 89.8904 112.546 89.2247 111.315C87.677 108.451 86.4385 105.46 85.9099 102.708C85.4557 100.344 85.0937 97.8961 84.8174 95.5593C84.6187 93.8768 85.5452 92.2974 87.1198 91.7189ZM119.942 93.4547C119.898 92.596 119.351 91.9064 118.575 91.7278C114.608 90.8142 109.478 90.3048 103.285 90.5683C97.0455 90.8338 91.82 91.9492 87.7532 93.4426C86.991 93.7226 86.5406 94.4905 86.6414 95.3436C86.9129 97.6397 87.2686 100.045 87.7136 102.362C88.1995 104.892 89.3744 107.728 90.8405 110.441C91.1761 111.062 91.8458 111.441 92.5955 111.434L117.334 111.185C118.197 111.176 118.93 110.66 119.171 109.894C119.864 107.693 120.302 105.504 120.302 103.609C120.302 101.544 120.179 98.2251 119.992 94.4495L119.942 93.4547Z" fill="black"/>
<path d="M77.0978 93.7316C79.5605 92.5367 83.2131 92.2319 86.2936 93.6588L86.4471 93.7316L85.1112 96.4855C82.977 95.4502 80.2671 95.6405 78.5366 96.4369L78.434 96.4854L77.0978 93.7316Z" fill="black"/>
<path fill-rule="evenodd" clip-rule="evenodd" d="M40.9424 94.0028C40.989 92.4326 41.9685 91.0783 43.4485 90.625C47.9286 89.2534 53.6357 88.5001 60.347 88.9653C66.8916 89.4189 72.3669 90.7263 76.6343 92.4015C78.2068 93.0183 79.1026 94.6327 78.8555 96.3197C78.5143 98.6459 78.0845 101.075 77.5636 103.419C76.9534 106.166 75.6106 109.13 73.9572 111.956C73.2567 113.153 71.9447 113.844 70.5396 113.794L46.0228 112.916C44.4231 112.859 43.0266 111.853 42.533 110.351C41.7458 107.956 41.1774 105.52 41.0124 103.287C40.8505 101.094 40.8377 98.1188 40.9182 94.8894L40.9424 94.0028ZM75.9633 94.1112C71.8631 92.5017 66.5695 91.2377 60.2198 90.7976L59.8858 90.7754C53.5558 90.3739 48.1866 91.0952 43.9861 92.3812C43.2773 92.5983 42.8018 93.2558 42.778 94.0574C42.6795 97.3764 42.6735 100.486 42.8176 102.769L42.8438 103.152C42.9959 105.211 43.5329 107.512 44.2776 109.778C44.5263 110.535 45.2429 111.051 46.0881 111.081L70.6053 111.958C71.3473 111.985 72.0196 111.631 72.372 111.029C73.9373 108.354 75.2104 105.543 75.7707 103.021C76.2808 100.725 76.7031 98.3386 77.0383 96.0535C77.1637 95.1977 76.727 94.4108 75.9633 94.1112Z" fill="black"/>
<path d="M22.8324 88.7077C25.833 86.9349 30.1066 86.9462 31.8684 87.1733C34.0847 88.3667 32.5503 93.9929 31.3569 95.0158C30.1634 96.0387 23.5144 99.619 20.9571 98.7666C18.3998 97.9141 20.6161 95.5273 19.9342 95.6978C19.2522 95.8682 18.0588 95.0158 18.0588 93.9929C18.0588 92.9699 19.0817 90.9241 22.8324 88.7077Z" fill="#EFD19F"/>
<path d="M141.902 86.1342C138.888 84.3455 134.595 84.3568 132.826 84.5863C130.6 85.7902 132.141 91.4662 133.34 92.4983C134.538 93.5301 141.217 97.1422 143.785 96.2821C146.354 95.4223 144.128 93.0141 144.813 93.1861C145.498 93.3581 146.697 92.4983 146.697 91.4662C146.697 90.4341 145.669 88.3702 141.902 86.1342Z" fill="#EFD19F"/>
<path d="M133.834 94.58C131.959 95.6305 123.625 69.2426 81.5153 69.9246C39.4048 70.6065 32.9116 98.5383 31.1424 97.6408C29.3733 96.7434 24.5044 68.9356 24.9135 52.0233C25.425 30.8827 29.8574 1.04745 81.5153 0.0245205C133.173 -0.998404 136.753 30.2008 136.924 52.0233C137.06 69.4811 135.71 93.5295 133.834 94.58Z" fill="#76CCDB"/>
<path d="M74.5248 63.1052C71.797 61.1955 72.0244 55.3763 72.479 52.7054L80.4925 49.6366V59.6954C80.4925 61.9118 77.9346 65.492 74.5248 63.1052Z" fill="white"/>
<path d="M82.1971 63.7871C79.4693 61.8775 80.2097 52.3075 80.6642 49.6366H88.4425V59.6954C88.4425 63.7871 85.6066 66.174 82.1971 63.7871Z" fill="white"/>
<path d="M67.8763 47.9316C68.2173 44.0104 74.6958 41.6235 80.1515 41.4531C87.8235 41.4531 90.892 43.4989 93.6198 45.8858C96.3476 48.2726 96.6886 52.8755 92.0854 53.7279C87.4822 54.5804 84.5839 51.6821 81.3446 51.5116C78.1053 51.3411 75.2073 53.7279 72.4795 53.7279C69.7517 53.7279 67.5353 51.8526 67.8763 47.9316Z" fill="#F6D59F"/>
<path d="M73.3319 42.1351C73.1614 39.9187 75.2073 36.3384 80.6629 36.1679C87.1418 36.1679 88.6753 39.0663 88.6753 40.9416C88.6753 42.817 86.7999 45.5448 81.3446 45.7153C75.8889 45.8858 73.5024 44.3514 73.3319 42.1351Z" fill="black"/>
<path d="M83.3928 26.1093C82.7109 17.2439 91.5757 8.03756 102.488 8.88997C113.399 9.74242 117.32 15.3685 118.342 22.6995C119.365 30.0305 117.32 38.2138 104.703 40.7711C92.0872 43.3284 84.0748 34.9745 83.3928 26.1093Z" fill="white"/>
<path d="M87.1414 25.9385C87.1414 24.2337 88.6758 20.8239 92.256 20.6534C96.6887 20.6534 97.7117 24.7451 97.7117 25.9385C97.7117 27.132 96.8592 31.735 92.256 31.735C87.6528 31.735 87.1414 27.6434 87.1414 25.9385Z" fill="black"/>
<path d="M40.294 27.6984C39.612 18.833 48.4768 9.62666 59.3887 10.4791C70.3003 11.3315 74.2206 16.9576 75.2436 24.2886C76.2665 31.6196 74.2206 39.8031 61.6045 42.3604C48.9883 44.9178 40.9759 36.5638 40.294 27.6984Z" fill="white"/>
<path d="M44.043 27.528C44.043 25.8232 45.5774 22.4134 49.1576 22.2429C53.59 22.2429 54.613 26.3346 54.613 27.528C54.613 28.7215 53.7605 33.3247 49.1576 33.3247C44.5544 33.3247 44.043 29.2329 44.043 27.528Z" fill="black"/>
<path d="M137.265 9.4012C130.446 3.80919 123.058 9.23071 120.216 12.6405L127.718 30.3712C128.854 31.1669 132.355 32.0759 137.265 29.3483C143.402 25.9385 145.789 16.3912 137.265 9.4012Z" fill="#76CCDB"/>
<path d="M131.596 15.0932C129.022 12.9653 126.233 15.0283 125.16 16.3258L127.992 23.0728C128.421 23.3756 129.742 23.7216 131.596 22.6836C133.912 21.3861 134.813 17.7531 131.596 15.0932Z" fill="black"/>
<path d="M23.4349 12.1572C30.4366 6.56163 38.0217 11.9867 40.939 15.3986L33.2373 33.1408C32.0703 33.937 28.4761 34.8469 23.4349 32.1173C17.1334 28.7053 14.6828 19.1518 23.4349 12.1572Z" fill="#76CCDB"/>
<path d="M29.1315 17.8211C31.8087 15.6932 34.7088 17.7562 35.8245 19.0538L32.8794 25.8008C32.4334 26.1036 31.0591 26.4495 29.1315 25.4115C26.7221 24.114 25.7851 20.481 29.1315 17.8211Z" fill="black"/>
</svg>
